 <!DOCTYPE svg PUBLIC "-//W3C//DTD SVG 1.1//EN" "http://www.w3.org/Graphics/SVG/1.1/DTD/svg11.dtd">
<svg xmlns="http://www.w3.org/2000/svg" width="865.76" height="682.89" viewBox="0 0 865.76 682.89">
<defs>
<style xmlns="http://www.w3.org/1999/xhtml">*, ::after, ::before { box-sizing: border-box; }
img, svg { vertical-align: middle; }
</style>
<style xmlns="http://www.w3.org/1999/xhtml">*, body, html { -webkit-font-smoothing: antialiased; }
img, svg { max-width: 100%; }
</style>
</defs>
<path d="M761.53,443S732.6,559.33,618.46,615.15s-250.24,30.52-361.07,12.9S76,529.17,83.56,432.3,180.43,327,248.7,230.5,320.46,97.83,430.32,54,681.42,84.8,735.91,215.59,761.53,443,761.53,443Z" fill="#0071f2" data-primary="true"/>
<path d="M761.53,443S732.6,559.33,618.46,615.15s-250.24,30.52-361.07,12.9S76,529.17,83.56,432.3,180.43,327,248.7,230.5,320.46,97.83,430.32,54,681.42,84.8,735.91,215.59,761.53,443,761.53,443Z" fill="#fff" opacity="0.7" style="isolation:isolate"/>
<path d="M461.85,567.94l-5,9s1,20,21,47c0,0,14,17,22,15,0,0,3-2-1-16,0,0-6-16-5-30l-20-20Z" fill="#0071f2" data-primary="true"/>
<path d="M519.85,509.94l-22.31,51.78a36.39,36.39,0,0,0-3,13l-.73,18.22s-14,18-32-25l26.86-62.07,31.14-4.93Z" fill="#f7a48b"/>
<polygon points="364.85 638.95 412.85 429.94 429.85 431.94 369.85 638.95 364.85 638.95" fill="#2e3135"/>
<polygon points="613.85 639.95 565.85 430.94 548.85 432.94 608.85 639.95 613.85 639.95" fill="#2e3135"/>
<path d="M389.48,430.05c-15.34-31.44-66.11-137.82-72.93-181.52a5.81,5.81,0,0,1,5.68-6.68l129.62-1.91L579.33,414.53l31.52,5.91a9.82,9.82,0,0,1,8,9.65h0A9.81,9.81,0,0,1,609,439.9L403.72,439A15.92,15.92,0,0,1,389.48,430.05Z" fill="#3f4347"/>
<polygon points="460.6 212.41 503.5 215.55 515.35 262.44 499.43 330.74 465.35 333.44 460.6 212.41" fill="#e6e6e6"/>
<path d="M490.4,506.18l-32.55,72.76v24c-18,21-40-41-40-41l15-68h0c.65-.19,22.38-6.76,48,8A65.19,65.19,0,0,0,490.4,506.18Z" fill="#f9b499"/>
<path d="M464.32,644.66a4.72,4.72,0,0,1-6.15,4.82c-21.25-6.85-42.32-67.54-42.32-67.54a23.71,23.71,0,0,1,2-20s22,62,40,41l.38,5.67A103.77,103.77,0,0,0,460.89,626C463.18,635.42,464.06,641.17,464.32,644.66Z" fill="#0071f2" data-primary="true"/>
<path d="M277.85,266l30.54,69.95a2.19,2.19,0,0,1-.14,2l-2.47,3.95,41.57-.42-6.63-9a17.21,17.21,0,0,1-2.73-5.55l-21.21-74.19Z" fill="#f9b499"/>
<polygon points="277.85 265.94 286.92 287.44 319.49 260.44 316.78 252.73 277.85 265.94" fill="#f7a48b"/>
<path d="M120.85,572.94l-1,9s17,27,52,25l-8-8,2-15Z" fill="#f9b499"/>
<path d="M113.85,608.94l6-27s14,26,52,25c0,0,18.68,22.42,22.64,38.37a.82.82,0,0,1-1.14.93Z" fill="#0071f2" data-primary="true"/>
<path d="M235.28,633.94l-2.83-27.51s21.49,20.25,57.23,7.31c0,0,24.8,15.37,33.59,29.25a.81.81,0,0,1-.78,1.24Z" fill="#0071f2" data-primary="true"/>
<path d="M289.68,613.74l-9.83-5.8-1-14-47,2,.6,10.49S252.51,626.53,289.68,613.74Z" fill="#f9b499"/>
<path d="M158.78,258.87s-4.2,20-11.14,67.59q-1.75,12-2.62,24l-5.17,71.44-35,151,74,20s32-215,34-233l8,48V601l67,1s12-185,2-222L264.21,278.87Z" fill="#000000" data-secondary="true"/>
<path d="M191.78,266.44s-.13.71-.46,1.95" fill="none" stroke="#fff" stroke-miterlimit="10"/>
<path d="M190.12,272.19a62.63,62.63,0,0,1-36.51,37.39" fill="none" stroke="#fff" stroke-miterlimit="10" stroke-dasharray="3.99 3.99"/>
<path d="M151.74,310.29c-.62.22-1.25.44-1.89.65" fill="none" stroke="#fff" stroke-miterlimit="10"/>
<path d="M212.85,359.94s7-22,9-27c0,0,12,45,17,114l7,154h-25v-193Z" opacity="0.2"/>
<path d="M471.6,197.42l-1,12-10,3s10,19,22,20c0,0,11-4,21-17l-7-8v-24Z" fill="#f9b499"/>
<path d="M460.6,212.42s9.08,11.87,20.23,14.6a12,12,0,0,0,10.07-2.08l12.56-9.42s.05,0,0,0c-1.09,1.38-10.55,13.11-20.9,16.87C482.6,232.42,470.6,231.42,460.6,212.42Z" fill="#f7a48b"/>
<path d="M471.6,196.42l-1,13a42.36,42.36,0,0,0,17-14Z" fill="#f7a48b"/>
<path d="M460.6,212.41a444.52,444.52,0,0,1,7.25,87.53h4s-7,20,0,39c0,0-10,1-15,1v3h-63s1-13,6-18c0,0-15-14-6-41l19-47s7-26,31-25Z" fill="#0071f2" data-primary="true"/>
<path d="M436.85,233.94a127.08,127.08,0,0,1-3.58,61.14l-.35-.57c5.17.83,10.32,1.76,15.48,2.64s10.3,1.84,15.45,2.79c-5.19-.7-10.37-1.42-15.55-2.2-5.34-.81-10.68-1.58-16-2.44l.14-.49a143.47,143.47,0,0,0,4.42-60.87Z" opacity="0.2"/>
<path d="M438.85,247.94s18.75,32.78,18.37,50.89l-24.37-3.89S441.85,261.94,438.85,247.94Z" opacity="0.2"/>
<path d="M432.85,294.94c-4.44,2.07-8.38,4.84-11,9,1.32-4.87,6.13-8.34,11-9Z" opacity="0.2"/>
<path d="M399.85,324.94s21,14,57,15v3h-63S393.85,331.94,399.85,324.94Z" opacity="0.2"/>
<path d="M503.5,215.55s3.35,24.39,1.35,59.39l-14,57,33-4,20-70-6-25S536.14,219.16,503.5,215.55Z" fill="#0071f2" data-primary="true"/>
<path d="M520.85,327.94h3l14-50s-1-8-10-15c0,0,10,24-4,41Z" opacity="0.2"/>
<path d="M510.72,329.34l-15.84,1.93-3-9.33,1.49,9.52-8.49.48-2-3v0a.83.83,0,0,0-.16.12l-.09.07-.32.22a5.48,5.48,0,0,1-.64.42l-.55.31c-.35.18-.7.34-1.05.49l-.17.07c-.3.12-.61.23-.91.32a14.16,14.16,0,0,1-1.64.43c-.17,0-.34.07-.51.11l-.64.1-.45.06a23.93,23.93,0,0,1-5.8,0l-.13,0-.33-1.67c-.17-1-.31-2-.43-2.95a70.59,70.59,0,0,1,.56-18.56c12.74-7.45,22.27-6.54,22.27-6.54C513.85,302.94,510.72,329.34,510.72,329.34Z" fill="#f9b499"/>
<path d="M488.12,331.66l-3.27.28-2-3v0l-.16.12-.09.07-.32.22a5.48,5.48,0,0,1-.64.42l-.55.31c-.35.18-.7.34-1.05.49l-.17.07c-.3.12-.61.23-.91.32a14.16,14.16,0,0,1-1.64.43c-.17,0-.34.07-.51.11l-.64.1-.45.06a23.93,23.93,0,0,1-5.8,0l-.13,0-.33-1.67c-.17-1-.31-2-.43-2.95,1.12.55,7.65,3.26,15.83-3.1Z" fill="#f7a48b"/>
<line x1="498.85" y1="323.94" x2="500.85" y2="329.94" fill="none" stroke="#f7a48b" stroke-linecap="round" stroke-linejoin="round"/>
<line x1="504.85" y1="320.94" x2="506.85" y2="328.94" fill="none" stroke="#f7a48b" stroke-linecap="round" stroke-linejoin="round"/>
<path d="M579.45,438.36a214.08,214.08,0,0,1-7.6,45.58c-28.78,35.42-64.63,28.38-81.45,22.24a65.19,65.19,0,0,1-9.55-4.24c-25.61-14.77-47.34-8.2-48-8h0l18-71c-54-9-52-56-52-56l6.95.06,147.05.94,11,13C577.65,394.75,580.45,417.65,579.45,438.36Z" fill="#0071f2" data-primary="true"/>
<polygon points="271.85 361.94 224.85 652.95 235.85 652.95 306.85 358.94 271.85 361.94" fill="#9ea0a3"/>
<polygon points="687.85 359.94 754.85 652.95 767.85 653.95 717.85 358.94 687.85 359.94" fill="#9ea0a3"/>
<path d="M579.45,438.36a214.08,214.08,0,0,1-7.6,45.58c-28.78,35.42-64.63,28.38-81.45,22.24a65.19,65.19,0,0,1-9.55-4.24c-25.61-14.77-47.34-8.2-48-8h0l18-71c-54-9-52-56-52-56h6.94a.21.21,0,0,0,0,.06c.25,1.63,7.2,42.78,64.05,34.94,0,0,0,5-9,11,0,0-6,3-3,8,0,0,11,0,2,14,0,0-29,37,3,45,0,0,24,8,36,16,0,0,21,12,56-15,0,0,19.18-17.26,24.59-42.62Z" opacity="0.2"/>
<path d="M156.85,259.94l111,20,6-42,41-9s2-36-6-74c0,0,0-10.66-27.66-26.13a100.63,100.63,0,0,1-8.89-5.68c-7.56-5.36-27-16-55.76-10-2.11.44-4.22.83-6.35,1.15-8.87,1.37-37.13,8.53-41.34,44.69C168.85,158.94,161.85,184.94,156.85,259.94Z" fill="#0071f2" data-primary="true"/>
<polygon points="273.85 237.94 287.85 185.94 299.78 231.73 273.85 237.94" opacity="0.2"/>
<path d="M234.85,204.94l16,31,72-13s4-12,16-14l10.65-4a1.72,1.72,0,0,1,2,2.62L347.56,213a.53.53,0,0,0,.48.84l21.5-2.22a1.28,1.28,0,0,1,.75,2.4l-11.06,6.09a.58.58,0,0,0,.39,1.07l13.28-2.77a1.29,1.29,0,0,1,1,2.35l-10.26,6.47a.58.58,0,0,0,.43,1.06l8.59-1.84a.68.68,0,0,1,.62,1.14l-4.55,4.54a.66.66,0,0,0,.32,1.1l3.75.87a.78.78,0,0,1,.27,1.4c-2.72,1.86-10.16,6-27.17,10.46l-99,33s-17.28,9.43-27.64-7.78l-27.36-40.22Z" fill="#f9b499"/>
<path d="M163.07,199.59l24.78,34.35,4-3,27.36,40.22-62.36-11.22S160.28,208.23,163.07,199.59Z" opacity="0.2"/>
<path d="M191.85,230.94l43-26,11.36,22.51s-30.22-3.08-49.29,10.71Z" fill="#f7a48b"/>
<path d="M227,111.53s4.81,28.41,26.81,31.41c0,0,11,1.43,22.51-16.78C276.36,126.16,256.23,108.12,227,111.53Z" fill="#fff" opacity="0.4"/>
<path d="M247.21,89.87l-13.36,28.07s14,22,28,18c0,0,9-3,5-10l1-16Z" fill="#f9b499"/>
<path d="M266.85,125.94S253,121.8,252.92,103.87l14.93,6.07Z" fill="#f7a48b"/>
<ellipse cx="275.85" cy="83.44" rx="29" ry="32.5" fill="#f9b499"/>
<path d="M318.28,63.5a17.15,17.15,0,0,1-1.43,6.44s-6,12-19,3c0,0-3-3-1-9,0,0-12,11-19,4,0,0-.85-1.7-.2-5.11a.86.86,0,0,0-.77-1c-1.25-.08-3.34.08-4,2.14,0,0,0,2.32-7.45,2.2A18.34,18.34,0,0,0,257.06,68a38.48,38.48,0,0,0-10.21,7l-11.14.4a51.16,51.16,0,0,1-3.58-12.75c-1.6-11.7,1.53-26.78,29.72-23.65,0,0,8-14,32-7,0,0,17,4,9,17C302.85,48.94,318.34,51.89,318.28,63.5Z" fill="#000000" data-secondary="true"/>
<path d="M288.85,45.94c0-6-16,0-16,0,3-5,9-8,9-8-11-2-18,6-18,6-28-1-19,10-19,10-3.26,0-9.07,5.1-12.72,8.65-1.6-11.7,1.53-26.78,29.72-23.65,0,0,8-14,32-7,0,0,17,4,9,17,0,0,15.49,3,15.43,14.56-13.36-12.07-34.43-12.56-34.43-12.56C289.85,47.94,288.85,45.94,288.85,45.94Z" opacity="0.2"/>
<path d="M278.85,73.44a.52.52,0,0,1-.38-.17c-1.54-1.85-3.1-2.78-4.66-2.78h0a5.07,5.07,0,0,0-3.53,1.77.5.5,0,1,1-.78-.63,6.09,6.09,0,0,1,4.3-2.14c1.93,0,3.73,1,5.47,3.13a.51.51,0,0,1-.06.71A.48.48,0,0,1,278.85,73.44Z" fill="#000000" data-secondary="true"/>
<path d="M305.11,81.55a.49.49,0,0,1-.4-.21c-2-2.82-4.08-4.32-5.87-4.34h0a3.38,3.38,0,0,0-2.57,1.24.5.5,0,1,1-.8-.59A4.37,4.37,0,0,1,298.82,76h0c2.15,0,4.4,1.61,6.69,4.75a.51.51,0,0,1-.11.7A.47.47,0,0,1,305.11,81.55Z" fill="#000000" data-secondary="true"/>
<circle cx="296.85" cy="85.94" r="3" fill="#000000" data-secondary="true"/>
<circle cx="277.85" cy="81.94" r="3" fill="#000000" data-secondary="true"/>
<path d="M273.85,98.94a18.46,18.46,0,0,0,11,6s-4,6-10,2C274.85,106.94,270.85,104.94,273.85,98.94Z" fill="#fff"/>
<path d="M288.85,83.94l2.63,12.27a1.27,1.27,0,0,1-1.39,1.52l-6.24-.79" fill="none" stroke="#f7a48b" stroke-linecap="round" stroke-linejoin="round"/>
<ellipse cx="243.85" cy="80.44" rx="9" ry="10.5" fill="#f9b499"/>
<path d="M218.85,161.94c7.32,12.91,14.78,26.54,21.78,39.6l.38.71-.7.44c-11.52,7.22-27.35,17-39,24.05l-13.07,7.88-.65.39q-5.46-7.87-10.86-15.81c-3.42-5.11-6.9-10.18-10.27-15.33,3.75,4.88,7.39,9.83,11.09,14.75s7.3,9.89,10.92,14.86l-1.07-.21c11.5-7.27,27.31-17.06,38.91-24.15l13-7.92-.32,1.15c-6.77-13.17-13.76-27.06-20.22-40.41Z" fill="#0071f2" data-primary="true"/>
<path d="M218.85,161.94c7.32,12.91,14.78,26.54,21.78,39.6l.38.71-.7.44c-11.52,7.22-27.35,17-39,24.05l-13.07,7.88-.65.39q-5.46-7.87-10.86-15.81c-3.42-5.11-6.9-10.18-10.27-15.33,3.75,4.88,7.39,9.83,11.09,14.75s7.3,9.89,10.92,14.86l-1.07-.21c11.5-7.27,27.31-17.06,38.91-24.15l13-7.92-.32,1.15c-6.77-13.17-13.76-27.06-20.22-40.41Z" opacity="0.3"/>
<rect x="220.85" y="341.94" width="550" height="27" rx="5.8" fill="#e1e1e2"/>
<path d="M500.08,172a35.5,35.5,0,0,1-.64,4.23c-3.46,16.15-17.13,26.93-30.51,24.07S447.5,182,451,165.81c.19-.87.4-1.72.64-2.54,4.29-14.74,17.21-24.25,29.87-21.52C493.69,144.36,501.45,157.43,500.08,172Z" fill="#f9b499"/>
<path d="M500.08,172c-29.67,0-32.23-24-32.23-24-7,4-16.41,16.68-16.41,16.68l.16-1.35c4.29-14.74,17.21-24.25,29.87-21.52C493.69,144.36,501.45,157.43,500.08,172Z" fill="#f7a48b"/>
<path d="M464.85,160.45c-6.89,0-7.69-1.66-7.78-2.17a.52.52,0,0,1,.42-.58.49.49,0,0,1,.56.37c.05.09.82,1.38,6.8,1.38a.5.5,0,0,1,.5.5A.5.5,0,0,1,464.85,160.45Z" fill="#000000" data-secondary="true"/>
<ellipse cx="457.85" cy="167.44" rx="2" ry="2.5" fill="#000000" data-secondary="true"/>
<ellipse cx="479.85" cy="169.44" rx="2" ry="2.5" fill="#000000" data-secondary="true"/>
<path d="M466.85,169.94l-2.68,8a.73.73,0,0,0,.69,1h4" fill="none" stroke="#f7a48b" stroke-linecap="round" stroke-linejoin="round"/>
<path d="M463.85,187.94s3-3,11,0" fill="none" stroke="#f7a48b" stroke-linecap="round" stroke-linejoin="round"/>
<path d="M529.85,209.94a30.13,30.13,0,0,1-2.66,1.82,56,56,0,0,1-11.34,5.18v-8s-5,6.38-12.5,6.5l-6.75-8v-24l3.88-14.75s-24.85,2.81-29.74-25.45c0,0-11.74,1.81-17.71,18.29-2.3,6.34-3.32,13.41-1.68,19.94,1.9,7.55,6.48,16.41,20,19.29l-.72,8.68-10,3s-15.75-2.47-19.75-11.47v8s-14,0-11-16a48,48,0,0,1,11-18,40.89,40.89,0,0,0,6.34-13.25h0a42.74,42.74,0,0,0,1.65-11.74s-2-11,8-14l23-8s16-6,19,6c0,0,21-2,22,24l1,20S542.85,201.94,529.85,209.94Z" fill="#000000" data-secondary="true"/>
<path d="M529.85,209.94a30.13,30.13,0,0,1-2.66,1.82l-.06,0c3.29-21.22-15.54-27.49-15.54-27.49l-5.74-15.31c6-7,4-17,4-17-5-14-17-11-17-11-2-5-8-6-8-6,3,3,1,7,1,7-8-6-14-5-14-5-21,1-20,9-20,9,0,9.58-4.29,15.29-4.65,15.74a42.74,42.74,0,0,0,1.65-11.74s-2-11,8-14l23-8s16-6,19,6c0,0,21-2,22,24l1,20S542.85,201.94,529.85,209.94Z" opacity="0.2"/>
<ellipse cx="499.75" cy="173.39" rx="8.71" ry="8.37" transform="translate(168.97 586.19) rotate(-70.43)" fill="#f9b499"/>
<path d="M454.85,333.94v8h228L706.17,240.3c.86-3.77-2-7.35-5.86-8.35H550.85l-27,95Z" fill="#000000" data-secondary="true"/>
<path d="M553.85,236l-16,99s18-43,64-46c0,0,28,8,49-21,0,0,13-20,45-31Z" opacity="0.2"/>
<path d="M638.52,303.16c-5.64,9.78-17.23,13.66-25.89,8.66s-11.09-18-5.45-27.75,17.24-13.66,25.9-8.66S644.17,293.38,638.52,303.16Z" fill="none" stroke="#fff" stroke-miterlimit="10"/>
<path d="M466.85,28.94h-123a13,13,0,0,0-13,13V98a13,13,0,0,0,13,13h9l-27.77,38.2,41.62-35.52a11.19,11.19,0,0,1,7.26-2.68h92.88a13,13,0,0,0,13-13v-56A13,13,0,0,0,466.85,28.94Z" fill="#0071f2" data-primary="true"/>
<text transform="translate(349.17 54.5)" font-size="17.48" fill="#fff" font-family="Poppins-Regular, Poppins">Everything is <tspan x="6.87" y="20.97">going to be</tspan>
<tspan font-family="Poppins-Bold, Poppins" font-weight="700">
<tspan x="26.28" y="41.95">200 Ok</tspan>
</tspan>
</text>
<rect x="550.91" y="50.08" width="231.83" height="146.79" fill="#fff"/>
<rect x="557.5" y="55.72" width="17.14" height="76.14" fill="#ebebeb"/>
<rect x="565.29" y="65.11" width="203.08" height="18.44" fill="#0071f2" data-primary="true"/>
<rect x="574.64" y="72.25" width="4.68" height="0.76" fill="#fff"/>
<rect x="574.64" y="75.66" width="4.68" height="0.76" fill="#fff"/>
<rect x="574.64" y="73.98" width="4.68" height="0.76" fill="#fff"/>
<rect x="589.78" y="71.56" width="45.02" height="5.55" fill="#fff"/>
<path d="M634.85,77.15H589.73V71.49h45.12Z" fill="#fff"/>
<rect x="629.19" y="71.5" width="5.66" height="5.66" fill="#000000" data-secondary="true"/>
<path d="M633.78,75.89l-.51.39-.95-1.23-.34-.46a1.18,1.18,0,0,0,.19-.11.89.89,0,0,0,.27-.34l.36.49Z" fill="#fff"/>
<path d="M632.77,72.94a1.4,1.4,0,1,0-.45,2.09l.2-.13a1.33,1.33,0,0,0,.28-.3A1.38,1.38,0,0,0,632.77,72.94Zm-.61,1.51a.76.76,0,0,1-.19.12.84.84,0,1,1,.47-.48.88.88,0,0,1-.27.36Z" fill="#fff"/>
<rect x="590.95" y="72.65" width="0.3" height="3.37" fill="#c7c7c7"/>
<rect x="679.82" y="73.49" width="19.45" height="1.69" opacity="0.1" style="isolation:isolate"/>
<rect x="649.97" y="73.49" width="19.45" height="1.69" fill="#fff"/>
<rect x="550.91" y="141.02" width="231.83" height="18.44" fill="#0071f2" data-primary="true"/>
<rect x="565.29" y="168.18" width="44.87" height="2.08" fill="#000000" data-secondary="true"/>
<polygon points="565.29 175.29 572.49 175.18 579.69 175.11 594.09 175.06 608.48 175.11 615.68 175.18 622.88 175.29 615.68 175.4 608.48 175.47 594.09 175.52 579.69 175.47 572.49 175.4 565.29 175.29" fill="#000000" data-secondary="true"/>
<polygon points="565.29 178.12 572.49 178.01 579.69 177.95 594.09 177.89 608.48 177.94 615.68 178.01 622.88 178.12 615.68 178.24 608.48 178.3 594.09 178.35 579.69 178.3 572.49 178.24 565.29 178.12" fill="#000000" data-secondary="true"/>
<polygon points="565.29 180.95 572.49 180.84 579.69 180.78 594.09 180.72 608.48 180.78 615.68 180.84 622.88 180.95 615.68 181.06 608.48 181.13 594.09 181.18 579.69 181.13 572.49 181.06 565.29 180.95" fill="#000000" data-secondary="true"/>
<polygon points="565.29 183.78 572.49 183.67 579.69 183.61 594.09 183.56 608.48 183.61 615.68 183.67 622.88 183.78 615.68 183.9 608.48 183.96 594.09 184.01 579.69 183.96 572.49 183.9 565.29 183.78" fill="#000000" data-secondary="true"/>
<path d="M565.29,186.62c2.4-.1,4.8-.15,7.2-.18l7.2-.05,7.2.05c2.4,0,4.8.08,7.2.18-2.4.09-4.8.14-7.2.17l-7.22.06-7.2-.06C570.09,186.76,567.69,186.73,565.29,186.62Z" fill="#000000" data-secondary="true"/>
<rect x="638.03" y="168.18" width="44.87" height="2.08" fill="#000000" data-secondary="true"/>
<polygon points="638.03 175.29 645.23 175.18 652.43 175.11 666.83 175.06 681.22 175.11 688.42 175.18 695.62 175.29 688.42 175.4 681.22 175.47 666.83 175.52 652.43 175.47 645.23 175.4 638.03 175.29" fill="#000000" data-secondary="true"/>
<polygon points="638.03 178.12 645.23 178.01 652.43 177.95 666.83 177.89 681.22 177.94 688.42 178.01 695.62 178.12 688.42 178.24 681.22 178.3 666.83 178.35 652.43 178.3 645.23 178.24 638.03 178.12" fill="#000000" data-secondary="true"/>
<polygon points="638.03 180.95 645.23 180.84 652.43 180.78 666.83 180.72 681.22 180.78 688.42 180.84 695.62 180.95 688.42 181.06 681.22 181.13 666.83 181.18 652.43 181.13 645.23 181.06 638.03 180.95" fill="#000000" data-secondary="true"/>
<polygon points="638.03 183.78 645.23 183.67 652.43 183.61 666.83 183.56 681.22 183.61 688.42 183.67 695.62 183.78 688.42 183.9 681.22 183.96 666.83 184.01 652.43 183.96 645.23 183.9 638.03 183.78" fill="#000000" data-secondary="true"/>
<path d="M638,186.62c2.4-.1,4.8-.15,7.2-.18l7.2-.05,7.2.05c2.4,0,4.8.08,7.2.18-2.4.09-4.8.14-7.2.17l-7.2.06-7.2-.06C642.83,186.76,640.43,186.73,638,186.62Z" fill="#000000" data-secondary="true"/>
<rect x="710.77" y="168.18" width="44.87" height="2.08" fill="#000000" data-secondary="true"/>
<polygon points="710.77 175.29 717.97 175.18 725.17 175.11 739.57 175.06 753.97 175.11 761.17 175.18 768.37 175.29 761.17 175.4 753.97 175.47 739.57 175.52 725.17 175.47 717.97 175.4 710.77 175.29" fill="#000000" data-secondary="true"/>
<polygon points="710.77 178.12 717.97 178.01 725.17 177.95 739.57 177.89 753.97 177.94 761.17 178.01 768.37 178.12 761.17 178.24 753.97 178.3 739.57 178.35 725.17 178.3 717.97 178.24 710.77 178.12" fill="#000000" data-secondary="true"/>
<polygon points="710.77 180.95 717.97 180.84 725.17 180.78 739.57 180.72 753.97 180.78 761.17 180.84 768.37 180.95 761.17 181.06 753.97 181.13 739.57 181.18 725.17 181.13 717.97 181.06 710.77 180.95" fill="#000000" data-secondary="true"/>
<polygon points="710.77 183.78 717.97 183.67 725.17 183.61 739.57 183.56 753.97 183.61 761.17 183.67 768.37 183.78 761.17 183.9 753.97 183.96 739.57 184.01 725.17 183.96 717.97 183.9 710.77 183.78" fill="#000000" data-secondary="true"/>
<path d="M710.77,186.62c2.4-.1,4.8-.15,7.2-.18l7.2-.05,7.2.05c2.4,0,4.8.08,7.2.18-2.4.09-4.8.14-7.2.17l-7.2.06-7.2-.06C715.56,186.76,713.17,186.73,710.77,186.62Z" fill="#000000" data-secondary="true"/>
<rect x="590.82" y="94.94" width="39.24" height="39.24" fill="#ebebeb"/>
<rect x="593.13" y="97.24" width="34.62" height="34.62" fill="#000000" data-secondary="true"/>
<path d="M598.71,105.5a3.27,3.27,0,1,0,3.84-2.56,3.07,3.07,0,0,0-1.28,0A3.27,3.27,0,0,0,598.71,105.5Z" opacity="0.2"/>
<polygon points="602.73 122.88 627.75 122.88 615.24 108.85 602.73 122.88" opacity="0.4"/>
<rect x="703.6" y="94.94" width="39.24" height="39.24" fill="#ebebeb"/>
<rect x="705.91" y="97.24" width="34.62" height="34.62" fill="#000000" data-secondary="true"/>
<path d="M711.48,105.5a3.26,3.26,0,1,0,3.84-2.56,3,3,0,0,0-1.27,0A3.26,3.26,0,0,0,711.48,105.5Z" opacity="0.1" style="isolation:isolate"/>
<polygon points="715.5 122.88 740.53 122.88 728.02 108.85 715.5 122.88" opacity="0.4"/>
<polygon points="726.56 122.88 716.23 113.74 705.9 122.88 705.9 131.87 740.52 131.87 740.52 122.88 726.56 122.88" fill="#000000" data-secondary="true"/>
<polygon points="726.56 122.88 716.23 113.74 705.9 122.88 705.9 131.87 740.52 131.87 740.52 122.88 726.56 122.88" opacity="0.2"/>
<rect x="647.2" y="94.94" width="39.24" height="39.24" fill="#ebebeb"/>
<rect x="649.52" y="97.24" width="34.62" height="34.62" fill="#0071f2" data-primary="true"/>
<path d="M655.09,105.5a3.27,3.27,0,1,0,3.85-2.56,3.07,3.07,0,0,0-1.28,0A3.27,3.27,0,0,0,655.09,105.5Z" opacity="0.1" style="isolation:isolate"/>
<polygon points="659.11 122.88 684.14 122.88 671.63 108.85 659.11 122.88" opacity="0.1" style="isolation:isolate"/>
<polygon points="670.17 122.88 659.85 113.74 649.51 122.88 649.51 131.87 684.14 131.87 684.14 122.88 670.17 122.88" fill="#0071f2" data-primary="true"/>
<polygon points="670.17 122.88 659.85 113.74 649.51 122.88 649.51 131.87 684.14 131.87 684.14 122.88 670.17 122.88" opacity="0.2" style="isolation:isolate"/>
<polygon points="593.13 146 602.71 145.89 612.29 145.82 631.46 145.77 650.62 145.82 660.2 145.88 669.78 146 660.2 146.11 650.62 146.18 631.46 146.23 612.29 146.18 602.71 146.11 593.13 146" fill="#fff"/>
<polygon points="593.13 148.83 602.71 148.72 612.29 148.66 631.46 148.6 650.62 148.66 660.2 148.72 669.78 148.83 660.2 148.94 650.62 149.01 631.46 149.06 612.29 149.01 602.71 148.94 593.13 148.83" fill="#fff"/>
<polygon points="593.13 151.66 602.71 151.55 612.29 151.49 631.46 151.44 650.62 151.49 660.2 151.55 669.78 151.66 660.2 151.77 650.62 151.84 631.46 151.89 612.29 151.84 602.71 151.77 593.13 151.66" fill="#fff"/>
<path d="M593.14,154.5c3.19-.1,6.38-.14,9.58-.18l9.58-.06,9.58.06c3.19,0,6.39.08,9.58.18-3.19.09-6.39.13-9.58.17l-9.58.05-9.58-.05C599.52,154.63,596.32,154.59,593.14,154.5Z" fill="#fff"/>
<polygon points="568.09 153.06 568.09 147.44 565.36 150.05 568.09 153.06" fill="#fff"/>
<polygon points="765.71 147.44 765.71 153.06 768.44 150.45 765.71 147.44" fill="#fff"/>
<rect x="550.91" y="50.08" width="231.83" height="5.65" fill="#0071f2" data-primary="true"/>
<path d="M556.23,52.9a1.08,1.08,0,0,1-2.15,0,1.09,1.09,0,0,1,1.07-1.08h0A1.08,1.08,0,0,1,556.23,52.9Z" fill="#fff"/>
<path d="M560.59,52.9a1.07,1.07,0,1,1-1.08-1.07h0A1.07,1.07,0,0,1,560.59,52.9Z" fill="#fff"/>
<path d="M565,52.9a1.07,1.07,0,1,1-1.08-1.07h0A1.07,1.07,0,0,1,565,52.9Z" fill="#fff"/>
<path d="M723.72,75.7a1.89,1.89,0,0,0,1,.28c.57,0,.9-.3.9-.73s-.23-.62-.81-.85-1.13-.61-1.13-1.21A1.23,1.23,0,0,1,725.05,72a1.93,1.93,0,0,1,1,.21l-.15.45a1.8,1.8,0,0,0-.81-.2c-.59,0-.81.35-.81.64s.26.59.85.82,1.09.63,1.09,1.26-.49,1.23-1.5,1.23a2.24,2.24,0,0,1-1.09-.27Z" fill="#fff"/>
<path d="M727.56,72.43v.88h.8v.42h-.8v1.66c0,.38.11.59.42.59a1.19,1.19,0,0,0,.32,0l0,.42a1.26,1.26,0,0,1-.5.08.74.74,0,0,1-.6-.24,1.1,1.1,0,0,1-.21-.79V73.73h-.48v-.42H727v-.74Z" fill="#fff"/>
<path d="M730.69,76.38l-.05-.39h0a1.13,1.13,0,0,1-.93.45.87.87,0,0,1-.94-.88c0-.74.66-1.14,1.84-1.14v-.06a.63.63,0,0,0-.7-.71,1.49,1.49,0,0,0-.79.23l-.13-.37a1.85,1.85,0,0,1,1-.27c.93,0,1.16.64,1.16,1.25v1.15a5.38,5.38,0,0,0,.05.74Zm-.09-1.57c-.6,0-1.3.09-1.3.69a.5.5,0,0,0,.53.53.76.76,0,0,0,.74-.51.57.57,0,0,0,0-.18Z" fill="#fff"/>
<path d="M732.69,72.43v.88h.8v.42h-.8v1.66c0,.38.11.59.42.59a1.13,1.13,0,0,0,.32,0l0,.42a1.26,1.26,0,0,1-.5.08.74.74,0,0,1-.6-.24,1.1,1.1,0,0,1-.21-.79V73.73h-.48v-.42h.48v-.74Z" fill="#fff"/>
<path d="M736.69,75.54c0,.32,0,.59,0,.84h-.49l0-.51h0a1.14,1.14,0,0,1-1,.57c-.48,0-1.06-.26-1.06-1.34V73.31h.56V75c0,.58.18,1,.68,1a.81.81,0,0,0,.74-.5.93.93,0,0,0,0-.29V73.31h.56Z" fill="#fff"/>
<path d="M737.54,75.8a1.4,1.4,0,0,0,.73.23c.41,0,.6-.21.6-.46s-.16-.41-.57-.56-.81-.51-.81-.87a.94.94,0,0,1,1.06-.9,1.53,1.53,0,0,1,.75.19l-.14.4a1.26,1.26,0,0,0-.63-.17c-.33,0-.51.19-.51.41s.18.37.58.52.81.47.81.93-.42.92-1.15.92a1.68,1.68,0,0,1-.86-.21Z" fill="#fff"/>
<path d="M740,73.81a.38.38,0,0,1,.38-.4.38.38,0,0,1,.38.4.38.38,0,1,1-.76,0Zm0,2.24a.38.38,0,0,1,.38-.4.38.38,0,0,1,.38.4.38.38,0,1,1-.76,0Z" fill="#fff"/>
<path d="M742.61,76.38V76l.43-.42c1.06-1,1.53-1.54,1.54-2.16a.73.73,0,0,0-.82-.8,1.42,1.42,0,0,0-.88.35l-.17-.4a1.8,1.8,0,0,1,1.16-.42,1.16,1.16,0,0,1,1.26,1.2c0,.76-.55,1.38-1.42,2.22l-.32.3h1.85v.47Z" fill="#fff"/>
<path d="M748.6,74.27c0,1.4-.52,2.17-1.43,2.17s-1.36-.75-1.37-2.11.6-2.15,1.43-2.15S748.6,73,748.6,74.27Zm-2.24.06c0,1.08.33,1.68.84,1.68s.84-.66.84-1.71-.26-1.68-.84-1.68S746.36,73.21,746.36,74.33Z" fill="#fff"/>
<path d="M751.85,74.27c0,1.4-.52,2.17-1.43,2.17s-1.35-.75-1.36-2.11.59-2.15,1.43-2.15S751.85,73,751.85,74.27Zm-2.24.06c0,1.08.33,1.68.84,1.68s.84-.66.84-1.71-.26-1.68-.83-1.68S749.61,73.21,749.61,74.33Z" fill="#fff"/>
<path d="M757.56,74.19a2,2,0,0,1-2,2.25,2,2,0,0,1-1.92-2.16,2,2,0,0,1,2-2.25A2,2,0,0,1,757.56,74.19Zm-3.32.07c0,.92.5,1.73,1.37,1.73s1.37-.8,1.37-1.77-.45-1.74-1.37-1.74S754.24,73.33,754.24,74.26Z" fill="#fff"/>
<path d="M758.81,74.71h0l.28-.34.9-1.06h.67l-1.19,1.26,1.35,1.81h-.68l-1-1.48-.29.32v1.16h-.55V71.87h.55Z" fill="#fff"/>
<polygon points="613.79 122.88 603.46 113.74 593.13 122.88 593.13 131.87 627.75 131.87 627.75 122.88 613.79 122.88" fill="#000000" data-secondary="true"/>
<polygon points="613.79 122.88 603.46 113.74 593.13 122.88 593.13 131.87 627.75 131.87 627.75 122.88 613.79 122.88" opacity="0.2"/>
<path d="M706.11,575.19a323.22,323.22,0,0,0-.48-34.66,441.13,441.13,0,0,0-10.85-70.62c-3-13.06-6.76-25.92-10.65-38.74-.12-.4-.73-.28-.62.12,12,45.24,21.87,91.93,21.16,139-.19,13.23-1.71,26.1-3,39.17,0,.36.54.49.62.14C704.84,598.41,705.65,586.68,706.11,575.19Z" fill="#0071f2" data-primary="true"/>
<path d="M683.51,431.34s-18.21,46.2-14.14,57.06,12.49,13.22,12.49,13.22-11.14,15.87-3.36,30.82,25.12,14.21,26.22,31.11C704.72,563.5,705.69,492.8,683.51,431.34Z" fill="#0071f2" data-primary="true"/>
<path d="M702.75,534.31a.36.36,0,0,0,0-.25,423.13,423.13,0,0,0-17.65-92.94c0-.08-.17,0-.15,0q5.4,20.28,9.56,40.76a20.11,20.11,0,0,0-8.69-4.84c-.06,0-.09.07,0,.09a23,23,0,0,1,9,6c.54,2.65,1.06,5.29,1.55,8-4.06-4.54-9.71-6.79-15.36-8.94-.07,0-.11.1,0,.12,5.89,2.4,11.73,5.48,15.73,10.58q2.07,11.5,3.65,23.08a22,22,0,0,0-10.86-6.22c-.12,0-.2.16-.07.2a22.9,22.9,0,0,1,11,7h.08c.35,2.71.7,5.44,1,8.15a27.93,27.93,0,0,0-7.6-4.59c-.07,0-.1.09,0,.12a26,26,0,0,1,7.62,5h.1c.29,2.64.6,5.18.86,7.77a37,37,0,0,0-15.43-11,.08.08,0,0,0-.12.06.09.09,0,0,0,0,.12,40.2,40.2,0,0,1,15.21,11.72.38.38,0,0,0,.39.12c.39,4,.75,7.93,1,11.9,0,0,.09.06.09,0C703.36,542.47,703.15,538.39,702.75,534.31Z" fill="#3f4347"/>
<path d="M688.13,472.49a22.83,22.83,0,0,0-10.94-3.41.07.07,0,0,0-.07.07.07.07,0,0,0,.07.06A44.37,44.37,0,0,1,688,472.74C688.14,472.81,688.26,472.58,688.13,472.49Z" fill="#3f4347"/>
<path d="M690.33,521.41a23,23,0,0,0-8.21-2.82c-.1,0-.1.15,0,.16a30.74,30.74,0,0,1,8.12,2.84C690.35,521.65,690.44,521.46,690.33,521.41Z" fill="#3f4347"/>
<path d="M754,489.15a124.4,124.4,0,0,0-21.07,18.41,75.7,75.7,0,0,0-14.77,25.06,187.09,187.09,0,0,0-11,59.93,144.57,144.57,0,0,0,3.24,33.7.32.32,0,1,0,.63-.12,188.28,188.28,0,0,1,.33-58.9c3.12-19.12,8-39.91,20.18-55.45,6.61-8.45,14.86-15.1,23-22C755,489.43,754.4,488.84,754,489.15Z" fill="#0071f2" data-primary="true"/>
<path d="M709.76,578.79a113.05,113.05,0,0,1,15.37-19.63c9.09-9.11,16.76-15.58,18-21.59S734,527.11,734,527.11s12.6,2.26,16-3,5.12-35.92,5.12-35.92-22.88,16.37-33.58,39.32S709.76,578.79,709.76,578.79Z" fill="#0071f2" data-primary="true"/>
<path d="M747.21,496c-9.64,9.48-19.35,19.57-25,32a125.2,125.2,0,0,0-5.07,13.23h0c-.29.9-.59,1.81-.87,2.72a.38.38,0,0,0,0,.15,260.67,260.67,0,0,0-6.52,28.3s.09.09.11,0c1-4.78,2.07-9.6,3.29-14.42h.13a20.28,20.28,0,0,1,6-1.53c.13,0,.12-.25,0-.24a22.23,22.23,0,0,0-5.95,1.08c1.11-4.33,2.31-8.66,3.67-12.93a63.69,63.69,0,0,1,13.6-1.77v-.08a51.29,51.29,0,0,0-13.36,1.14c.23-.73.48-1.46.73-2.18a67.74,67.74,0,0,1,9-1.54m0-.1a44.07,44.07,0,0,0-8.86,1.08c1.26-3.69,2.65-7.33,4.1-10.87a64.2,64.2,0,0,1,4.33-8.41,53.49,53.49,0,0,1,7.34-1.32c.06,0,.06-.12,0-.12a20,20,0,0,0-7,.75q1.81-2.91,3.82-5.7h0c5.15-1.14,10.36-2.19,15.62-1.2.08,0,.12-.15,0-.16-5-1.32-10-.56-15,.42.54-.72,1.1-1.43,1.67-2.14a34,34,0,0,1,9.6-1.51.05.05,0,1,0,0-.1,25,25,0,0,0-9,.79c4.24-5.29,8.94-10.25,13.58-15.15.28-.29.12-.37-.12-.2Z" fill="#3f4347"/>
<path d="M747,516.9a21.08,21.08,0,0,0-4.56-.16.17.17,0,0,0-.12.21.18.18,0,0,0,.12.12c1.5,0,3-.08,4.53,0A.1.1,0,0,0,747,517,.1.1,0,0,0,747,516.9Z" fill="#3f4347"/>
<path d="M730.46,546.61a20.9,20.9,0,0,0-7.07,1.42v.1c2.34-.55,4.7-.78,7.07-1.17a.18.18,0,0,0,.17-.18A.18.18,0,0,0,730.46,546.61Z" fill="#3f4347"/>
<path d="M725.51,536.35a15.08,15.08,0,0,0-3,.27c-.09,0-.09.18,0,.18a15.84,15.84,0,0,0,3-.14C725.7,536.63,725.7,536.35,725.51,536.35Z" fill="#3f4347"/>
<path d="M642.59,521.66a103.71,103.71,0,0,1,21.31,10,63.49,63.49,0,0,1,17.75,16.86,157.87,157.87,0,0,1,22.82,46,123.06,123.06,0,0,1,5.17,28,.27.27,0,0,1-.33.21.25.25,0,0,1-.21-.21,159,159,0,0,0-13.89-47.6c-7-14.75-15.72-30.42-29.09-40.21-7.31-5.28-15.52-8.79-23.71-12.47C641.85,522.11,642.16,521.51,642.59,521.66Z" fill="#0071f2" data-primary="true"/>
<path d="M699.06,584a95,95,0,0,0-17-12.32c-9.49-5.29-17.2-8.73-19.54-13.33s5-10.58,5-10.58-9.68,4.73-13.69,1.26-12.45-27.89-12.45-27.89,22.34,7.93,36.29,24S699.06,584,699.06,584Z" fill="#0071f2" data-primary="true"/>
<path d="M697.86,579c-11.18-21-26.08-39.94-46.51-52.46h0a103,103,0,0,1,14.94,11.7,23.77,23.77,0,0,0-12,2.53.08.08,0,0,0,0,.11.07.07,0,0,0,.06,0,33,33,0,0,1,12.35-2.09h.13c.73.69,1.45,1.39,2.16,2.09a37.41,37.41,0,0,0-6.41.86m0,.08a33.4,33.4,0,0,1,6.77-.56,141.41,141.41,0,0,1,10.58,12,10.82,10.82,0,0,0-4.49.32.1.1,0,0,0-.05.12.12.12,0,0,0,.05.05,22.56,22.56,0,0,1,4.79-.06c.62.78,1.23,1.54,1.84,2.34a42.75,42.75,0,0,0-13.56,1.32v.1a54.27,54.27,0,0,1,13.93-.91c.57.76,1.11,1.54,1.67,2.3a29.26,29.26,0,0,0-8.07.93c-.11,0-.08.18,0,.16a30.85,30.85,0,0,1,8.36-.65q3.6,5,6.91,10.12a7.58,7.58,0,0,0-3.54.21m0,.09a16.27,16.27,0,0,1,3.82.18c2,3.1,4,6.23,5.77,9.38.25.23.68,0,.5-.25Z" fill="#3f4347"/>
<path d="M680.52,561.57a17,17,0,0,0-6.49.79m0,.1a51.65,51.65,0,0,1,6.45-.67c.19,0,.19-.21,0-.22Z" fill="#3f4347"/>
<path d="M661,536a12,12,0,0,0-3,.17.09.09,0,0,0,0,.18c1-.1,1.94-.06,2.94-.09a.13.13,0,0,0,.16-.1A.14.14,0,0,0,661,536Z" fill="#3f4347"/>
<polygon points="727.86 653.32 677.45 653.32 684.63 600.66 686.47 587.17 718.83 587.17 720.67 600.66 727.86 653.32" fill="#3f4347"/>
<polygon points="720.67 600.66 684.63 600.66 686.47 587.17 718.83 587.17 720.67 600.66" fill="#2e3135"/>
<rect x="681.84" y="582.48" width="41.62" height="11.44" fill="#3f4347"/>
</svg>